<svg xmlns="http://www.w3.org/2000/svg" viewBox="0 0 800 500">
  <defs>
    <linearGradient id="bg-paqueta-" x1="0%" y1="0%" x2="100%" y2="100%">
      <stop offset="0%" style="stop-color:#8b0000;stop-opacity:1" />
      <stop offset="100%" style="stop-color:#4a0000;stop-opacity:1" />
    </linearGradient>
    <filter id="glow-paqueta-">
      <feGaussianBlur stdDeviation="3" result="coloredBlur"/>
      <feMerge><feMergeNode in="coloredBlur"/><feMergeNode in="SourceGraphic"/></feMerge>
    </filter>
  </defs>

  <!-- Background -->
  <rect width="800" height="500" fill="url(#bg-paqueta-)"/>

  <!-- Decorative elements -->
  <circle cx="700" cy="100" r="200" fill="#ff4444" opacity="0.03"/>
  <circle cx="100" cy="450" r="150" fill="#ff4444" opacity="0.03"/>

  <!-- Top accent bar -->
  <rect x="0" y="0" width="800" height="5" fill="#ff4444"/>

  <!-- Illustration -->
  
      <rect x="200" y="300" width="400" height="120" rx="8" fill="#ff4444" opacity="0.15"/>
      <rect x="220" y="280" width="30" height="140" rx="4" fill="#ff4444" opacity="0.2"/>
      <rect x="270" y="290" width="30" height="130" rx="4" fill="#ff4444" opacity="0.25"/>
      <rect x="320" y="270" width="30" height="150" rx="4" fill="#ff4444" opacity="0.3"/>
      <rect x="370" y="260" width="30" height="160" rx="4" fill="#ff4444" opacity="0.35"/>
      <rect x="420" y="270" width="30" height="150" rx="4" fill="#ff4444" opacity="0.3"/>
      <rect x="470" y="290" width="30" height="130" rx="4" fill="#ff4444" opacity="0.25"/>
      <rect x="520" y="300" width="30" height="120" rx="4" fill="#ff4444" opacity="0.2"/>
      <circle cx="400" cy="380" r="25" fill="white" opacity="0.9"/>
      <path d="M400 355 L410 370 L405 370 L405 405 L395 405 L395 370 L390 370 Z" fill="#ff4444" opacity="0.0"/>
      <line x1="388" y1="380" x2="412" y2="380" stroke="#ff4444" stroke-width="2" opacity="0.6"/>
      <line x1="400" y1="368" x2="400" y2="392" stroke="#ff4444" stroke-width="2" opacity="0.6"/>
      <path d="M395 370 Q400 362 405 370" stroke="#333" stroke-width="1.5" fill="none"/>
      <path d="M395 390 Q400 398 405 390" stroke="#333" stroke-width="1.5" fill="none"/>
    

  <!-- Category badge -->
  <rect x="40" y="60" width="138" height="34" rx="17" fill="#ff4444" opacity="0.9"/>
  <text x="109" y="83" font-family="'Segoe UI',Arial,sans-serif" font-size="14" font-weight="bold" fill="white" text-anchor="middle" letter-spacing="1.5">SUPERCOPA</text>

  <!-- Title -->
  <text x="40" y="170" font-family="'Segoe UI',Arial,sans-serif" font-size="30" font-weight="bold" fill="white" letter-spacing="-0.5">Paquetá Estreia Pelo Flamengo</text>
    <text x="40" y="208" font-family="'Segoe UI',Arial,sans-serif" font-size="30" font-weight="bold" fill="white" letter-spacing="-0.5">na Supercopa, Mas Isola Chance</text>
    <text x="40" y="246" font-family="'Segoe UI',Arial,sans-serif" font-size="30" font-weight="bold" fill="white" letter-spacing="-0.5">Clara e Corinthians Leva o</text>
    <text x="40" y="284" font-family="'Segoe UI',Arial,sans-serif" font-size="30" font-weight="bold" fill="white" letter-spacing="-0.5">Título</text>

  <!-- Bottom bar -->
  <rect x="0" y="460" width="800" height="40" fill="rgba(0,0,0,0.4)"/>
  <text x="40" y="486" font-family="'Segoe UI',Arial,sans-serif" font-size="15" fill="#ff4444" font-weight="bold">⚽ BOLA NA REDE</text>
  <text x="760" y="486" font-family="'Segoe UI',Arial,sans-serif" font-size="13" fill="rgba(255,255,255,0.6)" text-anchor="end">02 de fevereiro de 2026</text>

  <!-- Subtle grid pattern -->
  <pattern id="grid-paqueta-" width="40" height="40" patternUnits="userSpaceOnUse">
    <path d="M 40 0 L 0 0 0 40" fill="none" stroke="#ff4444" stroke-width="0.5" opacity="0.05"/>
  </pattern>
  <rect width="800" height="500" fill="url(#grid-paqueta-)"/>
</svg>